<?xml version="1.0" standalone="no"?>
<!DOCTYPE svg PUBLIC "-//W3C//DTD SVG 20010904//EN"
 "http://www.w3.org/TR/2001/REC-SVG-20010904/DTD/svg10.dtd">
<svg version="1.0" xmlns="http://www.w3.org/2000/svg"
 width="512.000000pt" height="512.000000pt" viewBox="0 0 512.000000 512.000000"
 preserveAspectRatio="xMidYMid meet">
<metadata>
Created by potrace 1.14, written by Peter Selinger 2001-2017
</metadata>
<g transform="translate(0.000000,512.000000) scale(0.100000,-0.100000)"
fill="#000000" stroke="none">
<path d="M533 4599 c-227 -38 -418 -202 -501 -431 l-27 -73 -2 -1130 c-3
-1252 -7 -1177 63 -1322 92 -192 277 -327 489 -357 17 -2 445 -5 953 -5 l922
-1 0 -255 0 -255 -710 0 c-390 0 -712 0 -715 0 -17 1 -67 -34 -84 -59 -41 -58
-24 -136 38 -178 l34 -23 1564 0 c1707 0 1595 -4 1642 56 29 37 29 111 -1 149
-44 56 -27 55 -798 55 l-710 0 0 255 0 255 928 1 c510 0 941 3 957 5 246 37
456 227 524 474 21 73 21 89 18 1205 l-2 1130 -27 73 c-77 211 -216 344 -438
418 -53 18 -139 19 -2060 20 -1109 1 -2028 -2 -2057 -7z m4100 -281 c123 -58
204 -161 225 -288 9 -58 8 -2133 -2 -2184 -29 -151 -164 -281 -316 -303 -30
-4 -935 -8 -2010 -7 -1948 1 -1955 1 -2012 22 -114 41 -199 125 -240 239 -21
57 -21 71 -22 1113 -1 580 2 1081 6 1112 19 142 126 269 264 312 43 13 295 14
2049 13 l2000 -2 58 -27z"/>
</g>
</svg>
